<?xml version="1.0" standalone="no"?>
<!DOCTYPE svg PUBLIC "-//W3C//DTD SVG 20010904//EN"
 "http://www.w3.org/TR/2001/REC-SVG-20010904/DTD/svg10.dtd">
<svg version="1.0" xmlns="http://www.w3.org/2000/svg"
 width="1000.000000pt" height="1000.000000pt" viewBox="0 0 1000.000000 1000.000000"
 preserveAspectRatio="xMidYMid meet">
<metadata>
Created by potrace 1.11, written by Peter Selinger 2001-2013
</metadata>
<g transform="translate(0.000000,1000.000000) scale(0.100000,-0.100000)"
fill="#000000" stroke="none">
<path d="M6705 9650 c0 -337 1 -350 20 -364 11 -9 23 -16 26 -16 4 0 128 -69
275 -153 148 -85 289 -165 314 -179 94 -53 1708 -975 1748 -999 15 -9 54 -31
87 -49 33 -18 94 -52 136 -76 l76 -44 0 -2770 0 -2770 -486 -276 c-267 -152
-498 -285 -513 -295 -15 -10 -29 -19 -32 -19 -3 0 -31 -15 -63 -34 -32 -18
-78 -45 -103 -58 -25 -14 -169 -96 -320 -183 -151 -87 -291 -166 -310 -177
-19 -10 -42 -23 -50 -29 -8 -5 -91 -53 -185 -106 -266 -151 -453 -257 -540
-307 l-80 -46 -1 -345 c-1 -202 3 -345 8 -345 9 0 37 15 693 390 466 266 372
213 815 465 201 114 379 216 395 226 17 11 37 22 45 26 8 4 53 29 100 56 47
27 103 59 125 72 22 12 137 77 255 145 118 67 240 136 270 153 30 16 62 36 71
43 8 8 19 14 22 14 4 0 85 44 180 99 94 54 190 109 212 121 22 12 55 31 73 42
l32 20 -2 3120 -3 3121 -270 154 c-148 85 -293 167 -321 182 -29 16 -98 56
-155 89 -57 33 -120 69 -139 79 -19 11 -336 192 -705 403 -368 210 -695 396
-725 413 -30 16 -67 38 -82 49 -14 10 -28 18 -31 18 -3 0 -139 77 -302 170
-163 94 -299 170 -300 170 -2 0 -32 17 -66 38 -35 21 -93 55 -129 75 l-66 36
1 -349z"/>
<path d="M3165 9925 c-60 -36 -117 -68 -125 -72 -20 -10 -391 -220 -410 -233
-8 -5 -37 -22 -65 -36 -27 -15 -61 -34 -75 -44 -14 -10 -53 -33 -88 -51 -35
-19 -71 -39 -80 -44 -9 -6 -64 -37 -122 -70 -57 -33 -114 -65 -125 -72 -11 -7
-26 -15 -34 -19 -8 -4 -116 -66 -240 -137 -124 -71 -246 -141 -271 -155 -25
-14 -346 -197 -715 -407 -369 -211 -686 -391 -705 -402 -19 -11 -52 -30 -73
-43 l-37 -22 2 -3120 3 -3121 105 -60 c58 -33 123 -70 145 -82 22 -13 117 -66
210 -120 94 -53 188 -107 210 -119 22 -13 153 -87 290 -166 138 -79 264 -151
280 -160 17 -9 158 -90 315 -180 157 -90 305 -174 330 -188 25 -14 295 -168
600 -342 305 -174 578 -329 605 -345 28 -15 55 -30 60 -35 6 -4 40 -23 76 -43
l66 -35 -1 348 c-1 192 -3 350 -6 353 -3 2 -106 61 -230 132 -124 70 -270 153
-325 185 -55 32 -122 70 -150 86 -27 15 -363 206 -745 424 -382 218 -715 408
-740 422 -25 14 -144 82 -266 151 l-221 127 0 2770 0 2770 556 318 c306 174
560 319 566 321 5 2 28 15 49 29 22 13 58 34 80 46 23 13 57 32 76 43 79 45
538 307 580 331 25 14 140 79 255 145 116 66 233 133 260 148 28 15 97 55 155
88 l105 61 0 345 c1 235 -2 345 -10 345 -5 -1 -59 -30 -120 -65z"/>
<path d="M3235 8711 c-27 -15 -84 -47 -125 -71 -41 -24 -136 -78 -210 -120
-74 -42 -232 -132 -350 -200 -118 -68 -235 -134 -260 -148 -25 -14 -234 -133
-465 -265 -231 -132 -488 -278 -572 -326 l-152 -86 -1 -2496 0 -2495 33 -17
c35 -18 87 -47 157 -88 25 -15 63 -37 84 -48 21 -12 118 -68 215 -124 97 -55
194 -111 216 -123 22 -12 144 -81 270 -154 127 -72 255 -146 285 -163 30 -16
132 -74 225 -127 560 -320 701 -400 708 -400 2 0 3 87 3 194 l-1 195 -38 25
c-21 14 -39 26 -41 26 -2 0 -107 59 -232 131 -126 72 -254 145 -284 161 -30
17 -129 74 -220 126 -91 52 -185 106 -210 120 -44 25 -573 326 -660 376 -25
14 -71 40 -102 58 l-58 33 0 2295 0 2295 338 192 c185 106 600 343 922 526
l585 334 1 196 c0 109 -2 197 -5 197 -3 0 -28 -13 -56 -29z"/>
<path d="M6705 8544 l0 -196 294 -169 c162 -93 296 -169 297 -169 1 0 89 -50
195 -111 232 -134 270 -155 331 -188 25 -14 199 -114 387 -221 l341 -195 0
-2295 0 -2295 -108 -61 c-190 -109 -1596 -911 -1627 -928 -16 -9 -48 -27 -70
-40 l-40 -24 0 -196 c-1 -172 1 -196 15 -191 8 4 98 54 200 112 102 58 199
114 215 123 17 9 190 108 385 220 195 111 371 212 390 222 33 19 299 171 338
193 32 19 157 89 193 110 20 11 131 74 247 140 l211 120 1 2495 0 2495 -188
106 c-103 59 -413 235 -689 393 -276 157 -517 294 -535 304 -39 23 -404 231
-608 348 -80 45 -152 85 -160 89 -13 5 -15 -20 -15 -191z"/>
<path d="M2716 5003 l0 -2908 385 0 384 0 1 1363 c1 749 4 1366 8 1369 3 3
683 7 1511 7 l1505 1 1 -45 c0 -25 0 -642 1 -1372 l0 -1328 386 0 387 0 -2
2902 c-1 1597 -2 2906 -2 2911 -1 4 -174 7 -385 7 l-384 0 0 -1177 c-1 -648
-1 -1186 -1 -1195 -1 -17 -80 -18 -1511 -18 -1431 0 -1510 1 -1511 18 0 9 -1
547 -1 1195 l0 1177 -387 0 -386 0 1 -2907z"/>
</g>
</svg>
